<svg xmlns="http://www.w3.org/2000/svg" width="1024" height="1024" viewBox="0 0 1024 1024">
<g>
<path d="M 315.11 583.85 C303.10,582.11 284.99,574.51 274.00,566.58 C261.62,557.65 250.58,543.31 245.08,529.04 C240.32,516.71 238.84,506.17 238.83,484.50 C238.82,465.31 240.02,455.84 243.41,448.50 C244.21,446.78 244.95,445.19 245.65,443.70 C245.63,443.75 245.62,443.80 245.60,443.85 C241.48,454.80 240.41,463.62 240.59,485.21 C240.85,514.93 242.04,520.00 248.81,520.00 C250.88,520.00 254.34,519.10 256.50,518.00 C258.66,516.90 260.93,516.00 261.54,516.00 C262.69,516.00 263.87,513.95 266.04,508.21 C266.72,506.40 268.03,504.52 268.96,504.02 C269.88,503.53 271.25,501.27 272.00,499.00 C273.29,495.11 276.34,492.10 277.34,493.75 C277.59,494.16 277.80,511.12 277.81,531.43 L 277.83 568.36 L 280.16 570.15 C283.60,572.79 296.52,578.96 299.19,579.25 L 301.50 579.50 L 302.00 524.00 C302.47,471.54 302.61,468.29 304.44,464.73 C306.41,460.91 307.72,460.45 309.14,463.06 C312.20,468.65 314.01,474.60 314.04,479.20 C314.07,482.11 314.69,486.18 315.42,488.24 C316.66,491.71 316.60,492.13 314.50,494.24 C313.25,495.48 312.05,497.40 311.81,498.50 C311.38,500.52 316.04,511.06 318.76,514.21 C319.80,515.42 320.03,517.01 319.55,519.71 C317.88,529.04 317.82,534.67 319.37,536.23 C320.21,537.07 320.72,537.94 320.50,538.17 C320.28,538.39 320.86,538.63 321.80,538.70 C322.73,538.77 325.52,539.35 328.00,539.98 C330.48,540.62 334.75,541.02 337.50,540.89 C340.98,540.71 343.45,541.21 345.63,542.51 L 348.75 544.39 L 343.81 549.29 C338.63,554.41 335.01,559.57 335.00,561.84 C335.00,563.78 338.83,568.36 340.68,568.63 C343.10,568.98 343.90,570.21 344.21,574.01 C344.59,578.54 346.09,580.00 352.35,581.92 C356.90,583.32 374.20,583.56 501.00,584.05 C709.39,584.84 709.75,584.84 719.50,582.12 C732.26,578.57 744.38,571.87 754.60,563.12 C765.35,553.92 774.00,542.45 779.06,530.01 C773.99,542.47 765.37,553.92 754.60,563.12 C744.43,571.81 732.35,578.50 719.50,582.20 L 711.50 584.50 L 516.50 584.63 C401.84,584.71 318.87,584.39 315.11,583.85 ZM 342.00 515.95 C335.77,517.34 329.44,517.24 328.24,515.75 C327.32,514.59 326.13,511.49 325.95,509.77 C325.91,509.37 325.49,507.72 325.03,506.12 C323.91,502.21 325.30,500.93 329.35,502.13 C331.08,502.64 335.76,502.95 339.75,502.82 C346.91,502.58 347.04,502.62 349.90,506.04 C351.75,508.24 352.48,509.90 351.91,510.59 C351.42,511.19 351.25,511.92 351.54,512.21 C352.23,512.90 347.63,514.70 342.00,515.95 ZM 644.02 625.75 C644.02,622.02 644.17,618.53 644.39,616.42 C644.48,616.75 644.66,617.06 644.94,617.34 C645.62,618.02 646.53,617.85 647.73,616.82 C650.60,614.33 653.62,614.09 656.92,616.10 C660.15,618.06 660.67,620.11 659.02,624.43 C657.90,627.40 658.58,627.69 661.17,625.35 C662.99,623.70 663.49,618.97 662.47,616.39 C663.50,617.61 664.00,619.16 664.00,621.05 C664.00,625.73 660.32,628.97 654.20,629.68 C649.36,630.24 648.84,630.54 648.32,633.15 C647.94,635.07 647.14,636.00 645.88,636.00 C644.16,636.00 644.00,635.11 644.02,625.75 ZM 569.53 636.05 C569.21,635.53 571.44,629.90 574.50,623.55 C576.18,620.06 577.48,617.50 578.53,615.70 C577.78,617.19 576.91,619.24 575.83,622.00 C573.79,627.22 572.56,631.66 573.11,631.85 C574.52,632.35 578.00,628.04 578.00,625.80 C578.00,623.92 580.65,618.00 581.49,618.00 C582.43,618.00 586.88,625.38 586.40,626.16 C586.12,626.61 586.65,628.56 587.56,630.49 C589.45,634.46 592.59,635.49 591.44,631.75 C591.06,630.51 589.90,627.83 588.87,625.79 C587.84,623.75 587.00,621.12 587.00,619.94 C587.00,619.44 586.93,618.92 586.81,618.39 C587.43,619.59 588.12,620.97 588.90,622.58 C591.70,628.39 594.00,634.02 594.00,635.08 C594.00,637.96 590.20,637.54 588.82,634.50 C588.03,632.78 586.87,632.00 585.09,631.99 C583.67,631.98 581.54,631.72 580.37,631.40 C578.86,630.99 577.33,631.72 575.09,633.92 C571.78,637.14 570.51,637.63 569.53,636.05 ZM 608.50 633.98 C607.92,631.36 608.48,620.26 609.34,615.23 C608.89,618.46 608.94,624.16 609.61,626.68 C610.55,630.16 613.00,628.33 613.01,624.14 C613.03,620.93 613.18,618.96 613.80,617.76 C613.72,617.99 613.65,618.25 613.58,618.54 C612.42,623.14 613.68,625.00 617.94,625.00 C620.04,625.00 622.29,624.35 622.95,623.56 C623.61,622.77 624.00,620.86 623.82,619.31 C623.53,616.73 623.12,616.48 618.87,616.20 C617.93,616.14 617.17,616.10 616.56,616.10 C617.14,616.03 617.81,616.00 618.58,616.00 C623.70,616.00 625.27,617.95 624.59,623.46 C623.85,629.45 627.64,626.98 628.64,620.82 C629.04,618.37 628.65,616.79 627.21,615.02 C626.98,614.72 626.74,614.46 626.50,614.23 C628.34,615.57 629.00,617.71 629.00,621.04 C629.00,626.76 624.82,630.00 617.43,630.00 C614.52,630.00 614.00,630.35 614.00,632.30 C614.00,637.27 609.52,638.64 608.50,633.98 ZM 658.39 622.75 C659.83,620.46 658.22,617.83 654.59,616.54 C650.08,614.93 646.61,618.92 648.41,623.63 C649.23,625.75 656.94,625.07 658.39,622.75 ZM 366.40 537.95 C362.31,541.55 356.52,542.25 356.29,539.18 C356.19,537.88 357.99,536.45 362.59,534.18 C366.14,532.43 369.16,531.00 369.31,531.00 C369.45,531.00 369.64,531.88 369.72,532.95 C369.80,534.06 368.36,536.23 366.40,537.95 ZM 340.94 499.57 C339.42,501.41 334.27,501.34 330.75,499.43 C327.54,497.68 327.52,497.63 329.57,495.57 C333.24,491.90 344.13,495.73 340.94,499.57 ZM 585.00 625.95 C585.00,625.37 584.29,623.52 583.41,621.84 C581.62,618.36 580.36,618.97 579.39,623.78 C578.78,626.86 578.89,627.00 581.88,627.00 C583.59,627.00 585.00,626.53 585.00,625.95 ZM 609.72 613.52 C610.11,612.25 610.91,611.93 614.89,612.05 C611.77,612.01 610.40,612.34 609.90,613.13 C609.83,613.23 609.77,613.36 609.72,613.52 ZM 580.96 612.41 C581.31,612.13 581.63,612.00 581.92,612.00 C582.32,612.00 582.76,612.23 583.27,612.74 C582.67,612.34 582.08,612.13 581.54,612.21 C581.35,612.24 581.16,612.30 580.96,612.41 ZM 651.51 612.69 C652.59,612.76 653.79,612.89 655.12,613.10 C656.01,613.24 656.82,613.41 657.57,613.62 C655.69,613.18 653.47,612.84 651.51,612.69 ZM 263.64 415.55 C267.41,411.51 271.63,407.76 276.14,404.39 C285.00,397.77 295.00,392.63 305.00,389.73 L 312.50 387.56 L 305.03 389.74 C294.76,392.73 284.90,397.82 276.14,404.39 C271.66,407.75 267.46,411.50 263.64,415.55 ZM 644.67 614.63 C644.70,614.53 644.73,614.46 644.77,614.41 C644.96,614.12 645.22,613.87 645.54,613.65 C645.17,613.94 644.88,614.27 644.67,614.63 Z" fill="rgba(152,38,172,1)"/>
<path d="M 501.00 584.05 C374.20,583.56 356.90,583.32 352.35,581.92 C346.09,580.00 344.59,578.54 344.21,574.01 C343.90,570.21 343.10,568.98 340.68,568.63 C338.83,568.36 335.00,563.78 335.00,561.84 C335.01,559.57 338.63,554.41 343.81,549.29 L 348.75 544.39 L 345.63 542.51 C343.91,541.48 341.99,540.95 339.55,540.86 C340.52,540.73 341.19,540.50 341.41,540.14 C341.70,539.67 344.25,539.01 347.08,538.68 C350.00,538.33 355.94,536.27 360.86,533.89 C377.49,525.86 389.78,510.14 393.61,492.00 C399.64,463.48 383.74,434.35 356.50,424.01 C349.20,421.23 332.39,420.15 323.92,421.91 C306.75,425.48 291.42,437.92 284.05,454.26 C279.27,464.87 279.06,467.65 278.97,520.09 L 278.89 569.18 L 277.83 568.36 L 277.81 531.43 C277.80,511.12 277.59,494.16 277.34,493.75 C276.34,492.10 273.29,495.11 272.00,499.00 C271.25,501.27 269.88,503.53 268.96,504.02 C268.03,504.52 266.72,506.40 266.04,508.21 C263.87,513.95 262.69,516.00 261.54,516.00 C260.93,516.00 258.66,516.90 256.50,518.00 C254.34,519.10 250.88,520.00 248.81,520.00 C242.04,520.00 240.85,514.93 240.59,485.21 C240.41,463.62 241.48,454.80 245.60,443.85 C254.94,419.01 278.64,397.43 305.03,389.74 L 312.50 387.56 L 509.50 387.25 C687.08,386.97 707.29,387.10 714.50,388.54 C746.88,395.04 772.46,419.12 782.65,452.71 C785.08,460.71 785.36,463.35 785.74,482.00 C786.11,499.93 785.91,503.77 784.09,512.64 C782.94,518.21 780.68,526.03 779.06,530.01 C769.19,554.27 745.68,574.84 719.50,582.12 C714.52,583.51 711.99,584.19 682.86,584.42 C685.16,583.99 684.96,583.30 682.69,582.27 C680.57,581.30 668.42,566.38 645.01,536.00 C627.65,513.46 620.86,505.00 620.14,505.00 C619.76,505.00 615.92,508.55 611.60,512.90 C606.09,518.44 604.00,521.20 604.58,522.15 C605.34,523.39 620.58,542.70 640.24,567.34 C644.56,572.75 649.25,578.94 650.68,581.09 L 652.94 584.50 C621.65,584.50 574.14,584.32 501.00,584.05 ZM 447.40 541.60 C450.10,544.30 451.60,545.00 454.68,545.00 C458.45,545.00 462.37,543.08 464.59,540.15 C465.27,539.26 465.94,529.62 466.34,515.10 C466.70,502.12 467.45,489.90 468.00,487.93 C469.42,482.84 475.16,476.60 481.20,473.59 C485.22,471.58 487.87,471.00 492.95,471.02 C500.85,471.05 506.00,473.20 511.20,478.63 C517.90,485.64 518.34,487.65 518.95,514.83 L 519.50 539.17 L 522.77 542.08 C526.58,545.49 531.58,545.95 536.05,543.31 C540.86,540.47 541.15,538.46 540.81,509.89 L 540.50 483.50 L 536.90 476.00 C528.44,458.41 513.24,448.90 493.49,448.86 C473.61,448.82 458.53,457.68 449.84,474.50 C444.67,484.50 444.00,489.15 444.00,515.15 L 444.00 538.20 ZM 690.00 545.90 C705.53,548.93 720.02,544.53 732.30,533.04 C744.83,521.32 746.92,513.64 746.97,479.15 L 747.00 458.80 L 743.60 455.40 C740.70,452.50 739.51,452.00 735.50,452.00 C731.49,452.00 730.30,452.50 727.40,455.40 C725.53,457.27 723.97,459.63 723.92,460.65 C723.88,461.67 723.77,472.66 723.67,485.08 L 723.50 507.65 L 720.47 512.55 C718.60,515.59 715.59,518.60 712.55,520.47 C708.22,523.15 706.78,523.50 700.00,523.50 C693.22,523.50 691.78,523.15 687.45,520.47 C684.42,518.60 681.40,515.58 679.53,512.56 L 676.50 507.67 L 676.00 484.08 C675.46,458.66 675.16,457.17 670.02,454.51 C664.96,451.89 660.26,452.54 656.40,456.40 L 653.00 459.80 L 653.00 482.69 C653.00,508.09 653.75,513.00 659.20,523.22 C664.75,533.63 678.31,543.62 690.00,545.90 ZM 334.40 540.86 C332.13,540.73 329.66,540.41 328.00,539.98 C325.52,539.35 322.73,538.77 321.80,538.70 C320.86,538.63 320.28,538.39 320.50,538.17 C320.72,537.94 320.21,537.07 319.37,536.23 C317.82,534.67 317.88,529.04 319.55,519.71 C320.03,517.01 319.80,515.42 318.76,514.21 C316.04,511.06 311.38,500.52 311.81,498.50 C312.05,497.40 313.25,495.48 314.50,494.24 C316.60,492.13 316.66,491.71 315.42,488.24 C314.69,486.18 314.07,482.11 314.04,479.20 C314.01,474.60 312.20,468.65 309.14,463.06 C307.72,460.45 306.41,460.91 304.44,464.73 C303.97,465.66 303.60,466.56 303.32,468.32 C303.49,466.41 303.68,465.21 303.89,464.58 C305.70,459.11 315.08,449.59 321.90,446.30 C326.55,444.05 328.86,443.59 335.50,443.59 C347.22,443.58 353.05,445.87 360.55,453.41 C369.70,462.62 371.49,467.05 371.50,480.50 C371.50,491.13 371.39,491.71 368.08,497.81 C361.64,509.69 350.36,516.95 338.21,517.04 C324.38,517.15 319.00,520.31 319.00,528.33 C319.00,533.62 321.11,536.69 326.38,539.09 C328.33,539.97 331.48,540.59 334.40,540.86 ZM 560.31 538.05 C562.07,539.12 564.33,539.99 565.35,540.00 C568.95,540.00 573.84,536.80 579.57,530.69 C582.76,527.29 597.89,511.87 613.19,496.43 L 641.00 468.35 L 641.00 463.73 C641.00,457.58 638.07,454.09 632.27,453.31 C629.90,452.99 626.77,453.26 625.16,453.93 C623.58,454.59 607.15,470.60 588.64,489.51 C555.46,523.42 555.00,523.95 555.00,528.01 C555.00,533.18 556.27,535.59 560.31,538.05 ZM 411.40 541.60 C414.19,544.39 415.56,545.00 419.00,545.00 C422.44,545.00 423.81,544.39 426.60,541.60 L 430.00 538.20 L 430.00 499.53 C430.00,473.03 429.65,460.18 428.88,458.68 C426.88,454.77 423.77,453.05 418.67,453.02 C414.66,453.00 413.36,453.49 410.92,455.92 L 408.00 458.85 L 408.00 538.20 ZM 555.00 464.18 L 555.00 508.47 L 578.00 485.53 L 578.00 417.80 L 574.60 414.40 C570.74,410.54 566.04,409.89 560.97,412.52 C559.95,413.04 559.10,413.48 558.40,414.09 C555.00,417.02 555.00,423.90 555.00,464.18 ZM 342.00 515.95 C347.63,514.70 352.23,512.90 351.54,512.21 C351.25,511.92 351.42,511.19 351.91,510.59 C352.48,509.90 351.75,508.24 349.90,506.04 C347.04,502.62 346.91,502.58 339.75,502.82 C338.38,502.87 336.93,502.86 335.54,502.81 C342.57,502.84 350.17,499.26 354.43,493.21 C356.92,489.66 357.49,487.76 357.75,482.21 C358.02,476.39 357.69,474.84 355.28,470.53 C353.75,467.80 350.97,464.54 349.10,463.28 C330.42,450.74 307.80,470.14 317.37,490.50 C319.98,496.06 321.64,497.77 327.50,500.90 C329.38,501.91 331.48,502.50 333.67,502.71 C331.80,502.59 330.21,502.38 329.35,502.13 C325.30,500.93 323.91,502.21 325.03,506.12 C325.49,507.72 325.91,509.37 325.95,509.77 C326.13,511.49 327.32,514.59 328.24,515.75 C329.44,517.24 335.77,517.34 342.00,515.95 ZM 340.94 499.57 C344.13,495.73 333.24,491.90 329.57,495.57 C327.52,497.63 327.54,497.68 330.75,499.43 C332.13,500.18 333.75,500.64 335.31,500.82 C331.54,500.69 328.09,499.31 324.54,496.60 C318.02,491.62 315.20,481.14 318.38,473.72 C320.06,469.80 325.50,464.50 329.32,463.06 C332.93,461.70 340.08,461.70 343.68,463.06 C349.84,465.39 355.93,473.97 355.98,480.38 C356.04,488.68 349.74,497.56 342.19,499.82 C341.29,500.09 340.41,500.31 339.56,500.47 C340.15,500.25 340.62,499.95 340.94,499.57 ZM 412.15 444.93 C418.48,447.47 427.73,445.18 432.68,439.85 C441.57,430.30 436.07,413.52 422.90,409.97 C416.64,408.29 411.38,409.61 406.52,414.09 C395.93,423.85 398.79,439.58 412.15,444.93 ZM 425.76 440.01 C423.94,441.11 420.73,441.99 418.50,441.99 C407.40,441.99 400.14,428.85 405.96,419.30 C411.56,410.12 426.27,411.12 431.25,421.02 C434.76,428.02 432.48,435.91 425.76,440.01 ZM 484.72 523.22 C488.50,525.57 495.71,525.48 499.70,523.04 C505.49,519.51 507.75,511.28 504.60,505.20 C496.29,489.12 471.99,500.96 479.88,517.25 C481.01,519.59 483.19,522.28 484.72,523.22 ZM 500.60 519.60 C496.14,524.06 489.82,524.40 485.10,520.43 C476.64,513.31 480.66,500.00 491.27,500.00 C502.57,500.00 508.26,511.94 500.60,519.60 ZM 414.50 437.60 C418.21,439.24 418.24,439.24 421.68,437.93 C434.02,433.26 431.38,417.00 418.29,417.00 C415.00,417.00 413.29,417.66 410.77,419.92 C408.00,422.39 407.50,423.52 407.50,427.31 C407.50,432.34 409.60,435.44 414.50,437.60 ZM 380.69 636.35 C380.31,635.98 380.00,630.31 380.00,623.76 C380.00,612.03 380.03,611.87 382.23,612.18 C383.76,612.40 385.62,614.50 388.16,618.89 C390.20,622.40 392.27,625.67 392.76,626.16 C393.28,626.68 395.27,623.91 397.52,619.52 C400.64,613.46 401.84,612.00 403.70,612.00 C405.97,612.00 406.00,612.15 406.00,623.83 C406.00,630.34 405.73,635.94 405.40,636.26 C405.07,636.59 404.17,636.62 403.40,636.32 C402.39,635.93 402.00,633.88 402.00,628.89 C402.00,625.10 401.66,622.00 401.25,622.00 C400.84,622.00 399.15,624.59 397.50,627.75 C395.85,630.91 393.86,633.50 393.08,633.50 C392.30,633.50 390.28,630.92 388.58,627.77 C386.89,624.61 385.18,622.02 384.79,622.02 C384.41,622.01 383.96,625.23 383.79,629.17 C383.53,635.72 382.48,638.15 380.69,636.35 ZM 463.25 635.51 C459.90,634.05 458.93,631.35 461.41,630.40 C462.19,630.10 464.24,630.59 465.98,631.49 C470.31,633.73 473.50,633.16 473.50,630.15 C473.50,628.26 472.55,627.44 468.69,625.97 C466.05,624.97 463.24,623.61 462.44,622.95 C460.40,621.26 460.63,615.64 462.83,613.65 C465.24,611.47 475.22,611.35 476.99,613.49 C478.73,615.59 477.47,618.43 475.24,617.43 C474.28,617.00 471.94,616.61 470.02,616.57 C464.88,616.47 464.67,619.46 469.68,621.58 C471.78,622.48 474.62,623.74 476.00,624.39 C480.29,626.41 479.95,633.79 475.48,635.83 C472.08,637.38 467.26,637.25 463.25,635.51 ZM 426.40 633.60 C423.03,630.23 423.00,630.12 423.00,621.10 C423.00,612.90 423.18,612.00 424.86,612.00 C426.46,612.00 426.81,613.12 427.39,620.13 C428.18,629.59 429.09,631.73 432.68,632.64 C438.21,634.02 440.96,629.58 440.99,619.25 C441.00,612.67 441.19,612.00 443.00,612.00 C444.84,612.00 445.00,612.67 445.00,620.55 C445.00,633.23 442.47,637.00 433.97,637.00 C430.56,637.00 429.18,636.38 426.40,633.60 ZM 522.33 636.04 C517.42,633.84 515.02,630.58 514.29,625.10 C513.66,620.39 516.46,615.02 520.52,613.17 C525.75,610.79 536.00,612.46 536.00,615.69 C536.00,617.56 533.13,618.53 531.73,617.13 C529.92,615.32 524.49,615.82 521.63,618.07 C514.37,623.79 522.43,636.60 530.62,632.35 C535.34,629.90 538.16,632.61 533.75,635.36 C529.83,637.80 526.68,637.99 522.33,636.04 ZM 329.00 480.92 C329.00,487.48 329.38,491.00 330.08,491.00 C331.96,491.00 346.97,482.55 346.96,481.50 C346.94,480.70 333.43,472.53 329.87,471.17 C329.39,470.98 329.00,475.37 329.00,480.92 ZM 698.45 513.73 C698.72,514.43 699.58,515.00 700.36,515.00 C701.51,515.00 701.92,511.83 702.48,498.75 C702.85,489.81 703.02,479.58 702.83,476.00 C702.54,470.28 702.26,469.50 700.50,469.50 C698.57,469.50 698.49,470.26 698.23,490.98 C698.08,502.79 698.18,513.02 698.45,513.73 ZM 423.44 432.78 C420.01,437.68 411.00,433.86 411.00,427.50 C411.00,423.91 414.65,420.00 418.00,420.00 C418.95,420.00 420.92,420.93 422.37,422.07 C425.43,424.49 425.91,429.25 423.44,432.78 ZM 609.61 626.68 C608.73,623.39 608.91,614.68 609.90,613.13 C610.54,612.11 612.61,611.87 618.00,612.17 C624.20,612.52 625.53,612.93 627.21,615.02 C628.65,616.79 629.04,618.37 628.64,620.82 C627.64,626.98 623.85,629.45 624.59,623.46 C625.27,617.95 623.70,616.00 618.58,616.00 C613.76,616.00 613.04,617.06 613.01,624.14 C613.00,628.33 610.55,630.16 609.61,626.68 ZM 587.56 630.49 C586.65,628.56 586.12,626.61 586.40,626.16 C586.88,625.38 582.43,618.00 581.49,618.00 C580.65,618.00 578.00,623.92 578.00,625.80 C578.00,628.04 574.52,632.35 573.11,631.85 C572.56,631.66 573.79,627.22 575.83,622.00 C578.63,614.84 580.04,612.43 581.54,612.21 C583.78,611.89 587.00,616.44 587.00,619.94 C587.00,621.12 587.84,623.75 588.87,625.79 C589.90,627.83 591.06,630.51 591.44,631.75 C592.59,635.49 589.45,634.46 587.56,630.49 ZM 488.00 511.50 C488.00,516.18 488.37,518.00 489.30,518.00 C490.70,518.00 500.00,512.38 500.00,511.54 C500.00,510.94 489.82,505.02 488.75,505.01 C488.34,505.00 488.00,507.92 488.00,511.50 ZM 706.69 506.35 C708.84,508.51 709.50,505.50 709.50,493.43 C709.50,481.94 709.31,480.49 707.75,480.19 C706.16,479.88 706.00,481.01 706.00,492.76 C706.00,499.86 706.31,505.98 706.69,506.35 ZM 495.00 624.50 C495.00,612.99 495.16,611.88 496.75,612.19 C498.30,612.49 498.50,613.89 498.50,624.50 C498.50,635.11 498.30,636.51 496.75,636.81 C495.16,637.12 495.00,636.01 495.00,624.50 ZM 659.02 624.43 C660.67,620.11 660.15,618.06 656.92,616.10 C653.62,614.09 650.60,614.33 647.73,616.82 C646.53,617.85 645.62,618.02 644.94,617.34 C643.41,615.81 644.84,613.26 647.54,612.75 C650.78,612.13 659.85,613.63 661.59,615.08 C663.65,616.78 663.38,623.35 661.17,625.35 C658.58,627.69 657.90,627.40 659.02,624.43 ZM 366.40 537.95 C368.36,536.23 369.80,534.06 369.72,532.95 C369.64,531.88 369.45,531.00 369.31,531.00 C369.16,531.00 366.14,532.43 362.59,534.18 C357.99,536.45 356.19,537.88 356.29,539.18 C356.52,542.25 362.31,541.55 366.40,537.95 ZM 690.22 491.75 C689.94,501.54 690.02,502.00 692.00,502.00 C693.98,502.00 694.06,501.54 693.78,491.75 C693.55,483.43 693.22,481.50 692.00,481.50 C690.78,481.50 690.45,483.43 690.22,491.75 ZM 415.38 429.56 C416.18,431.64 419.75,431.33 420.96,429.07 C421.75,427.60 421.61,426.75 420.38,425.52 C417.33,422.48 413.77,425.36 415.38,429.56 ZM 682.38 493.55 C683.00,495.16 685.57,495.50 686.44,494.09 C687.29,492.72 685.97,490.00 684.45,490.00 C682.70,490.00 681.68,491.73 682.38,493.55 ZM 713.70 493.66 C713.98,494.40 715.07,495.00 716.11,495.00 C718.47,495.00 718.71,491.21 716.40,490.32 C714.57,489.62 712.93,491.65 713.70,493.66 ZM 301.85 540.38 L 301.50 579.50 L 300.61 579.40 C301.10,577.54 301.53,563.90 301.85,540.38 ZM 284.69 572.91 C282.74,571.85 281.10,570.87 280.16,570.15 L 279.98 570.01 L 283.37 572.12 C283.76,572.36 284.20,572.63 284.69,572.91 Z" fill="rgba(232,96,185,1)"/>
<path d="M 650.68 581.09 C649.25,578.94 644.56,572.75 640.24,567.34 C620.58,542.70 605.34,523.39 604.58,522.15 C604.00,521.20 606.09,518.44 611.60,512.90 C615.92,508.55 619.76,505.00 620.14,505.00 C620.86,505.00 627.65,513.46 645.01,536.00 C668.42,566.38 680.57,581.30 682.69,582.27 C687.17,584.31 683.59,585.00 668.57,585.00 L 653.27 585.00 L 650.68 581.09 ZM 293.67 577.41 C290.46,576.03 285.83,573.65 283.37,572.12 L 278.89 569.33 L 278.97 520.09 C279.06,467.65 279.27,464.87 284.05,454.26 C291.42,437.92 306.75,425.48 323.92,421.91 C332.39,420.15 349.20,421.23 356.50,424.01 C383.74,434.35 399.64,463.48 393.61,492.00 C389.78,510.14 377.49,525.86 360.86,533.89 C355.94,536.27 350.00,538.33 347.08,538.68 C344.25,539.01 341.70,539.67 341.41,540.14 C340.45,541.69 330.60,541.00 326.38,539.09 C321.11,536.69 319.00,533.62 319.00,528.33 C319.00,520.31 324.38,517.15 338.21,517.04 C350.36,516.95 361.64,509.69 368.08,497.81 C371.39,491.71 371.50,491.13 371.50,480.50 C371.49,467.05 369.70,462.62 360.55,453.41 C353.05,445.87 347.22,443.58 335.50,443.59 C328.86,443.59 326.55,444.05 321.90,446.30 C315.08,449.59 305.70,459.11 303.89,464.58 C302.91,467.52 302.45,482.31 302.04,523.92 C301.69,559.53 301.14,579.44 300.50,579.62 C299.95,579.78 296.88,578.79 293.67,577.41 ZM 690.00 545.90 C678.31,543.62 664.75,533.63 659.20,523.22 C653.75,513.00 653.00,508.09 653.00,482.69 L 653.00 459.80 L 656.40 456.40 C660.26,452.54 664.96,451.89 670.02,454.51 C675.16,457.17 675.46,458.66 676.00,484.08 L 676.50 507.67 L 679.53 512.56 C681.40,515.58 684.42,518.60 687.45,520.47 C691.78,523.15 693.22,523.50 700.00,523.50 C706.78,523.50 708.22,523.15 712.55,520.47 C715.59,518.60 718.60,515.59 720.47,512.55 L 723.50 507.65 L 723.67 485.08 C723.77,472.66 723.88,461.67 723.92,460.65 C723.97,459.63 725.53,457.27 727.40,455.40 C730.30,452.50 731.49,452.00 735.50,452.00 C739.51,452.00 740.70,452.50 743.60,455.40 L 747.00 458.80 L 746.97 479.15 C746.92,513.64 744.83,521.32 732.30,533.04 C720.02,544.53 705.53,548.93 690.00,545.90 ZM 411.40 541.60 L 408.00 538.20 L 408.00 498.52 L 408.00 458.85 L 410.92 455.92 C413.36,453.49 414.66,453.00 418.67,453.02 C423.77,453.05 426.88,454.77 428.88,458.68 C429.65,460.18 430.00,473.03 430.00,499.53 L 430.00 538.20 L 426.60 541.60 C423.81,544.39 422.44,545.00 419.00,545.00 C415.56,545.00 414.19,544.39 411.40,541.60 ZM 447.40 541.60 L 444.00 538.20 L 444.00 515.15 C444.00,489.15 444.67,484.50 449.84,474.50 C458.53,457.68 473.61,448.82 493.49,448.86 C513.24,448.90 528.44,458.41 536.90,476.00 L 540.50 483.50 L 540.81 509.89 C541.15,538.46 540.86,540.47 536.05,543.31 C531.58,545.95 526.58,545.49 522.77,542.08 L 519.50 539.17 L 518.95 514.83 C518.34,487.65 517.90,485.64 511.20,478.63 C506.00,473.20 500.85,471.05 492.95,471.02 C487.87,471.00 485.22,471.58 481.20,473.59 C475.16,476.60 469.42,482.84 468.00,487.93 C467.45,489.90 466.70,502.12 466.34,515.10 C465.94,529.62 465.27,539.26 464.59,540.15 C462.37,543.08 458.45,545.00 454.68,545.00 C451.60,545.00 450.10,544.30 447.40,541.60 ZM 560.31 538.05 C556.27,535.59 555.00,533.18 555.00,528.01 C555.00,523.95 555.46,523.42 588.64,489.51 C607.15,470.60 623.58,454.59 625.16,453.93 C626.77,453.26 629.90,452.99 632.27,453.31 C638.07,454.09 641.00,457.58 641.00,463.73 L 641.00 468.35 L 613.19 496.43 C597.89,511.87 582.76,527.29 579.57,530.69 C573.84,536.80 568.95,540.00 565.35,540.00 C564.33,539.99 562.07,539.12 560.31,538.05 ZM 484.72 523.22 C483.19,522.28 481.01,519.59 479.88,517.25 C471.99,500.96 496.29,489.12 504.60,505.20 C507.75,511.28 505.49,519.51 499.70,523.04 C495.71,525.48 488.50,525.57 484.72,523.22 ZM 500.60 519.60 C508.26,511.94 502.57,500.00 491.27,500.00 C480.66,500.00 476.64,513.31 485.10,520.43 C489.82,524.40 496.14,524.06 500.60,519.60 ZM 698.45 513.73 C698.18,513.02 698.08,502.79 698.23,490.98 C698.49,470.26 698.57,469.50 700.50,469.50 C702.26,469.50 702.54,470.28 702.83,476.00 C703.02,479.58 702.85,489.81 702.48,498.75 C701.92,511.83 701.51,515.00 700.36,515.00 C699.58,515.00 698.72,514.43 698.45,513.73 ZM 555.00 464.18 C555.00,415.60 555.00,415.60 560.97,412.52 C566.04,409.89 570.74,410.54 574.60,414.40 L 578.00 417.80 L 578.00 451.67 L 578.00 485.53 L 566.50 497.00 L 555.00 508.47 L 555.00 464.18 ZM 706.69 506.35 C706.31,505.98 706.00,499.86 706.00,492.76 C706.00,481.01 706.16,479.88 707.75,480.19 C709.31,480.49 709.50,481.94 709.50,493.43 C709.50,505.50 708.84,508.51 706.69,506.35 ZM 327.50 500.90 C321.64,497.77 319.98,496.06 317.37,490.50 C307.80,470.14 330.42,450.74 349.10,463.28 C350.97,464.54 353.75,467.80 355.28,470.53 C357.69,474.84 358.02,476.39 357.75,482.21 C357.49,487.76 356.92,489.66 354.43,493.21 C348.44,501.73 335.80,505.34 327.50,500.90 ZM 342.19 499.82 C349.74,497.56 356.04,488.68 355.98,480.38 C355.93,473.97 349.84,465.39 343.68,463.06 C340.08,461.70 332.93,461.70 329.32,463.06 C325.50,464.50 320.06,469.80 318.38,473.72 C315.20,481.14 318.02,491.62 324.54,496.60 C330.13,500.86 335.47,501.84 342.19,499.82 ZM 690.22 491.75 C690.45,483.43 690.78,481.50 692.00,481.50 C693.22,481.50 693.55,483.43 693.78,491.75 C694.06,501.54 693.98,502.00 692.00,502.00 C690.02,502.00 689.94,501.54 690.22,491.75 ZM 682.38 493.55 C681.68,491.73 682.70,490.00 684.45,490.00 C685.97,490.00 687.29,492.72 686.44,494.09 C685.57,495.50 683.00,495.16 682.38,493.55 ZM 713.70 493.66 C712.93,491.65 714.57,489.62 716.40,490.32 C718.71,491.21 718.47,495.00 716.11,495.00 C715.07,495.00 713.98,494.40 713.70,493.66 ZM 412.15 444.93 C398.79,439.58 395.93,423.85 406.52,414.09 C411.38,409.61 416.64,408.29 422.90,409.97 C436.07,413.52 441.57,430.30 432.68,439.85 C427.73,445.18 418.48,447.47 412.15,444.93 ZM 425.76 440.01 C432.48,435.91 434.76,428.02 431.25,421.02 C426.27,411.12 411.56,410.12 405.96,419.30 C400.14,428.85 407.40,441.99 418.50,441.99 C420.73,441.99 423.94,441.11 425.76,440.01 ZM 488.00 511.50 C488.00,507.92 488.34,505.00 488.75,505.01 C489.82,505.02 500.00,510.94 500.00,511.54 C500.00,512.38 490.70,518.00 489.30,518.00 C488.37,518.00 488.00,516.18 488.00,511.50 ZM 329.00 480.92 C329.00,475.37 329.39,470.98 329.87,471.17 C333.43,472.53 346.94,480.70 346.96,481.50 C346.97,482.55 331.96,491.00 330.08,491.00 C329.38,491.00 329.00,487.48 329.00,480.92 ZM 414.50 437.60 C409.60,435.44 407.50,432.34 407.50,427.31 C407.50,423.52 408.00,422.39 410.77,419.92 C413.29,417.66 415.00,417.00 418.29,417.00 C431.38,417.00 434.02,433.26 421.68,437.93 C418.24,439.24 418.21,439.24 414.50,437.60 ZM 423.44 432.78 C425.91,429.25 425.43,424.49 422.37,422.07 C420.92,420.93 418.95,420.00 418.00,420.00 C414.65,420.00 411.00,423.91 411.00,427.50 C411.00,433.86 420.01,437.68 423.44,432.78 ZM 415.38 429.56 C413.77,425.36 417.33,422.48 420.38,425.52 C421.61,426.75 421.75,427.60 420.96,429.07 C419.75,431.33 416.18,431.64 415.38,429.56 Z" fill="rgba(253,252,253,1)"/>
</g>
</svg>